<?xml version="1.0" encoding="UTF-8" standalone="no"?>
<!DOCTYPE svg PUBLIC "-//W3C//DTD SVG 1.1//EN"
 "http://www.w3.org/Graphics/SVG/1.1/DTD/svg11.dtd">
<!-- Generated by graphviz version 2.40.1 (20161225.0304)
 -->
<!-- Title: G Pages: 1 -->
<svg width="458pt" height="332pt"
 viewBox="0.00 0.00 458.45 332.00" xmlns="http://www.w3.org/2000/svg" xmlns:xlink="http://www.w3.org/1999/xlink">
<g id="graph0" class="graph" transform="scale(1 1) rotate(0) translate(4 328)">
<title>G</title>
<polygon fill="#ffffff" fill-opacity="0.2" stroke="transparent" points="-4,4 -4,-328 454.4479,-328 454.4479,4 -4,4"/>
<!-- display_scan -->
<g id="node1" class="node">
<title>display_scan</title>
<ellipse fill="#6eb83d" stroke="#000000" cx="262.1022" cy="-162" rx="42.7316" ry="18"/>
<text text-anchor="middle" x="262.1022" y="-159" font-family="Helvetica,sans-Serif" font-size="10.00" fill="#000000">display_scan</text>
</g>
<!-- diamond -->
<g id="node2" class="node">
<title>diamond</title>
<ellipse fill="#3d8f7e" stroke="#000000" cx="283.1022" cy="-18" rx="31.2692" ry="18"/>
<text text-anchor="middle" x="283.1022" y="-15" font-family="Helvetica,sans-Serif" font-size="10.00" fill="#ffffff">diamond</text>
</g>
<!-- display_scan&#45;&gt;diamond -->
<g id="edge1" class="edge">
<title>display_scan&#45;&gt;diamond</title>
<path fill="none" stroke="#000000" d="M358.1022,-90C355.4772,-65.991 335.106,-47.4098 316.2573,-35.1416"/>
<polygon fill="#000000" stroke="#000000" points="317.852,-32.0146 307.4931,-29.7914 314.2047,-37.9893 317.852,-32.0146"/>
<path fill="none" stroke="#000000" d="M289.5291,-148.2143C318.5638,-132.6637 359.9929,-107.2928 358.1022,-90"/>
</g>
<!-- interactive -->
<g id="node6" class="node">
<title>interactive</title>
<ellipse fill="#9849ac" stroke="#000000" cx="183.1022" cy="-90" rx="35.6021" ry="18"/>
<text text-anchor="middle" x="183.1022" y="-87" font-family="Helvetica,sans-Serif" font-size="10.00" fill="#ffffff">interactive</text>
</g>
<!-- display_scan&#45;&gt;interactive -->
<g id="edge13" class="edge">
<title>display_scan&#45;&gt;interactive</title>
<path fill="none" stroke="#000000" d="M244.1759,-145.6621C233.4208,-135.86 219.5877,-123.2526 207.8069,-112.5157"/>
<polygon fill="#000000" stroke="#000000" points="210.1632,-109.9277 200.4147,-105.7784 205.448,-115.1014 210.1632,-109.9277"/>
</g>
<!-- addresses -->
<g id="node3" class="node">
<title>addresses</title>
<ellipse fill="#4692a4" stroke="#000000" cx="358.1022" cy="-162" rx="35.7509" ry="18"/>
<text text-anchor="middle" x="358.1022" y="-159" font-family="Helvetica,sans-Serif" font-size="10.00" fill="#ffffff">addresses</text>
</g>
<!-- addresses&#45;&gt;diamond -->
<g id="edge2" class="edge">
<title>addresses&#45;&gt;diamond</title>
<path fill="none" stroke="#000000" d="M359.1884,-143.8911C359.8029,-129.2951 360.0993,-108.2662 358.1022,-90"/>
</g>
<!-- check_internet -->
<g id="node4" class="node">
<title>check_internet</title>
<ellipse fill="#537bb6" stroke="#000000" cx="283.1022" cy="-90" rx="46.5768" ry="18"/>
<text text-anchor="middle" x="283.1022" y="-87" font-family="Helvetica,sans-Serif" font-size="10.00" fill="#ffffff">check_internet</text>
</g>
<!-- check_internet&#45;&gt;diamond -->
<g id="edge3" class="edge">
<title>check_internet&#45;&gt;diamond</title>
<path fill="none" stroke="#000000" d="M283.1022,-71.8314C283.1022,-64.131 283.1022,-54.9743 283.1022,-46.4166"/>
<polygon fill="#000000" stroke="#000000" points="286.6023,-46.4132 283.1022,-36.4133 279.6023,-46.4133 286.6023,-46.4132"/>
</g>
<!-- non_interactive -->
<g id="node5" class="node">
<title>non_interactive</title>
<ellipse fill="#6c46a4" stroke="#000000" cx="81.1022" cy="-90" rx="48.2898" ry="18"/>
<text text-anchor="middle" x="81.1022" y="-87" font-family="Helvetica,sans-Serif" font-size="10.00" fill="#ffffff">non_interactive</text>
</g>
<!-- non_interactive&#45;&gt;diamond -->
<g id="edge4" class="edge">
<title>non_interactive&#45;&gt;diamond</title>
<path fill="none" stroke="#000000" d="M116.2879,-77.4586C152.7605,-64.4584 209.5141,-44.2294 246.5011,-31.0459"/>
<polygon fill="#000000" stroke="#000000" points="248.1315,-34.1806 256.3759,-27.5262 245.7812,-27.5869 248.1315,-34.1806"/>
</g>
<!-- interactive&#45;&gt;diamond -->
<g id="edge5" class="edge">
<title>interactive&#45;&gt;diamond</title>
<path fill="none" stroke="#000000" d="M203.8223,-75.0816C218.7295,-64.3484 238.9981,-49.7549 255.3096,-38.0107"/>
<polygon fill="#000000" stroke="#000000" points="257.3591,-40.8479 263.4293,-32.1645 253.2689,-35.1672 257.3591,-40.8479"/>
</g>
<!-- is_root -->
<g id="node7" class="node">
<title>is_root</title>
<ellipse fill="#b6537b" stroke="#000000" cx="413.1022" cy="-90" rx="27" ry="18"/>
<text text-anchor="middle" x="413.1022" y="-87" font-family="Helvetica,sans-Serif" font-size="10.00" fill="#ffffff">is_root</text>
</g>
<!-- is_root&#45;&gt;diamond -->
<g id="edge6" class="edge">
<title>is_root&#45;&gt;diamond</title>
<path fill="none" stroke="#000000" d="M392.2155,-78.432C371.2133,-66.8 338.5774,-48.7247 314.4656,-35.3705"/>
<polygon fill="#000000" stroke="#000000" points="316.1275,-32.29 305.6838,-30.5067 312.736,-38.4136 316.1275,-32.29"/>
</g>
<!-- scan -->
<g id="node8" class="node">
<title>scan</title>
<ellipse fill="#a7c431" stroke="#000000" cx="262.1022" cy="-234" rx="27" ry="18"/>
<text text-anchor="middle" x="262.1022" y="-231" font-family="Helvetica,sans-Serif" font-size="10.00" fill="#000000">scan</text>
</g>
<!-- scan&#45;&gt;display_scan -->
<g id="edge10" class="edge">
<title>scan&#45;&gt;display_scan</title>
<path fill="none" stroke="#000000" d="M262.1022,-215.8314C262.1022,-208.131 262.1022,-198.9743 262.1022,-190.4166"/>
<polygon fill="#000000" stroke="#000000" points="265.6023,-190.4132 262.1022,-180.4133 258.6023,-190.4133 265.6023,-190.4132"/>
</g>
<!-- scan&#45;&gt;addresses -->
<g id="edge7" class="edge">
<title>scan&#45;&gt;addresses</title>
<path fill="none" stroke="#000000" d="M280.1591,-220.4574C294.2197,-209.9119 313.9877,-195.0859 330.097,-183.0039"/>
<polygon fill="#000000" stroke="#000000" points="332.2381,-185.7731 338.1381,-176.9731 328.038,-180.1731 332.2381,-185.7731"/>
</g>
<!-- scan&#45;&gt;non_interactive -->
<g id="edge14" class="edge">
<title>scan&#45;&gt;non_interactive</title>
<path fill="none" stroke="#000000" d="M247.0363,-218.5185C223.5798,-194.4787 180.1729,-150.2699 172.1022,-144 155.5774,-131.1623 135.7419,-119.058 118.8135,-109.5761"/>
<polygon fill="#000000" stroke="#000000" points="120.1964,-106.3422 109.7474,-104.5901 116.8231,-112.4758 120.1964,-106.3422"/>
</g>
<!-- netifaces -->
<g id="node9" class="node">
<title>netifaces</title>
<ellipse fill="#5353b6" stroke="#000000" cx="418.1022" cy="-234" rx="32.1922" ry="18"/>
<text text-anchor="middle" x="418.1022" y="-231" font-family="Helvetica,sans-Serif" font-size="10.00" fill="#ffffff">netifaces</text>
</g>
<!-- netifaces&#45;&gt;addresses -->
<g id="edge8" class="edge">
<title>netifaces&#45;&gt;addresses</title>
<path fill="none" stroke="#000000" d="M404.4873,-217.6621C396.8483,-208.4953 387.1648,-196.8751 378.6236,-186.6257"/>
<polygon fill="#000000" stroke="#000000" points="381.1703,-184.2145 372.0796,-178.7729 375.7927,-188.6958 381.1703,-184.2145"/>
</g>
<!-- kamene -->
<g id="node10" class="node">
<title>kamene</title>
<ellipse fill="#cc33ae" stroke="#000000" cx="358.1022" cy="-306" rx="29.5567" ry="18"/>
<text text-anchor="middle" x="358.1022" y="-303" font-family="Helvetica,sans-Serif" font-size="10.00" fill="#ffffff">kamene</text>
</g>
<!-- kamene&#45;&gt;addresses -->
<g id="edge9" class="edge">
<title>kamene&#45;&gt;addresses</title>
<path fill="none" stroke="#000000" d="M358.1022,-287.7623C358.1022,-263.201 358.1022,-219.2474 358.1022,-190.3541"/>
<polygon fill="#000000" stroke="#000000" points="361.6023,-190.0896 358.1022,-180.0896 354.6023,-190.0897 361.6023,-190.0896"/>
</g>
<!-- kamene&#45;&gt;kamene -->
<g id="edge20" class="edge">
<title>kamene&#45;&gt;kamene</title>
<path fill="none" stroke="#000000" d="M379.7219,-318.5475C393.1247,-321.5731 405.8797,-317.3906 405.8797,-306 405.8797,-297.546 398.8537,-293.0626 389.7515,-292.5497"/>
<polygon fill="#000000" stroke="#000000" points="389.3678,-289.07 379.7219,-293.4525 389.9954,-296.0418 389.3678,-289.07"/>
</g>
<!-- block -->
<g id="node15" class="node">
<title>block</title>
<ellipse fill="#ac9849" stroke="#000000" cx="119.1022" cy="-234" rx="27" ry="18"/>
<text text-anchor="middle" x="119.1022" y="-231" font-family="Helvetica,sans-Serif" font-size="10.00" fill="#000000">block</text>
</g>
<!-- kamene&#45;&gt;block -->
<g id="edge22" class="edge">
<title>kamene&#45;&gt;block</title>
<path fill="none" stroke="#000000" d="M334.8601,-294.4965C329.7368,-292.1802 324.2896,-289.8822 319.1022,-288 262.9638,-267.6312 195.5093,-250.9675 155.0359,-241.7717"/>
<polygon fill="#000000" stroke="#000000" points="155.6289,-238.3178 145.1051,-239.5425 154.0957,-245.1479 155.6289,-238.3178"/>
</g>
<!-- loading_animation -->
<g id="node11" class="node">
<title>loading_animation</title>
<ellipse fill="#ce3b3b" stroke="#000000" cx="56.1022" cy="-306" rx="56.2046" ry="18"/>
<text text-anchor="middle" x="56.1022" y="-303" font-family="Helvetica,sans-Serif" font-size="10.00" fill="#ffffff">loading_animation</text>
</g>
<!-- loading_animation&#45;&gt;display_scan -->
<g id="edge11" class="edge">
<title>loading_animation&#45;&gt;display_scan</title>
<path fill="none" stroke="#000000" d="M47.1022,-234C54.3398,-218.1414 154.5016,-189.7564 215.5249,-173.7732"/>
<polygon fill="#000000" stroke="#000000" points="216.5325,-177.1277 225.3297,-171.2235 214.7707,-170.353 216.5325,-177.1277"/>
</g>
<!-- loading_animation&#45;&gt;non_interactive -->
<g id="edge16" class="edge">
<title>loading_animation&#45;&gt;non_interactive</title>
<path fill="none" stroke="#000000" d="M48.7158,-288.0316C43.6952,-272.955 39.2569,-251.1903 47.1022,-234"/>
<path fill="none" stroke="#000000" d="M47.1022,-234C64.0757,-196.8085 56.4043,-183.7147 66.1022,-144 68.2026,-135.3985 70.7051,-126.0887 73.0585,-117.6612"/>
<polygon fill="#000000" stroke="#000000" points="76.4582,-118.5013 75.818,-107.9258 69.7235,-116.5923 76.4582,-118.5013"/>
</g>
<!-- loading_animation&#45;&gt;block -->
<g id="edge21" class="edge">
<title>loading_animation&#45;&gt;block</title>
<path fill="none" stroke="#000000" d="M71.3528,-288.5708C79.5134,-279.2444 89.6776,-267.6281 98.5284,-257.513"/>
<polygon fill="#000000" stroke="#000000" points="101.3304,-259.6257 105.2815,-249.7951 96.0624,-255.0162 101.3304,-259.6257"/>
</g>
<!-- display_block -->
<g id="node12" class="node">
<title>display_block</title>
<ellipse fill="#40c040" stroke="#000000" cx="119.1022" cy="-162" rx="43.7969" ry="18"/>
<text text-anchor="middle" x="119.1022" y="-159" font-family="Helvetica,sans-Serif" font-size="10.00" fill="#000000">display_block</text>
</g>
<!-- display_block&#45;&gt;non_interactive -->
<g id="edge15" class="edge">
<title>display_block&#45;&gt;non_interactive</title>
<path fill="none" stroke="#000000" d="M109.7089,-144.2022C105.37,-135.981 100.1239,-126.041 95.3153,-116.9301"/>
<polygon fill="#000000" stroke="#000000" points="98.2821,-115.0527 90.5191,-107.8425 92.0914,-118.3201 98.2821,-115.0527"/>
</g>
<!-- display_block&#45;&gt;interactive -->
<g id="edge12" class="edge">
<title>display_block&#45;&gt;interactive</title>
<path fill="none" stroke="#000000" d="M134.2693,-144.937C142.4361,-135.7494 152.6477,-124.2613 161.6187,-114.1689"/>
<polygon fill="#000000" stroke="#000000" points="164.4568,-116.2443 168.4845,-106.4449 159.2249,-111.5937 164.4568,-116.2443"/>
</g>
<!-- mac_vendor -->
<g id="node13" class="node">
<title>mac_vendor</title>
<ellipse fill="#b67b53" stroke="#000000" cx="179.1022" cy="-306" rx="41.0176" ry="18"/>
<text text-anchor="middle" x="179.1022" y="-303" font-family="Helvetica,sans-Serif" font-size="10.00" fill="#000000">mac_vendor</text>
</g>
<!-- mac_vendor&#45;&gt;scan -->
<g id="edge17" class="edge">
<title>mac_vendor&#45;&gt;scan</title>
<path fill="none" stroke="#000000" d="M197.9362,-289.6621C209.7066,-279.4516 224.9861,-266.1971 237.6821,-255.1837"/>
<polygon fill="#000000" stroke="#000000" points="240.3289,-257.5211 245.5893,-248.3244 235.7419,-252.2334 240.3289,-257.5211"/>
</g>
<!-- nmap -->
<g id="node14" class="node">
<title>nmap</title>
<ellipse fill="#40c073" stroke="#000000" cx="265.1022" cy="-306" rx="27" ry="18"/>
<text text-anchor="middle" x="265.1022" y="-303" font-family="Helvetica,sans-Serif" font-size="10.00" fill="#000000">nmap</text>
</g>
<!-- nmap&#45;&gt;scan -->
<g id="edge18" class="edge">
<title>nmap&#45;&gt;scan</title>
<path fill="none" stroke="#000000" d="M264.3452,-287.8314C264.0243,-280.131 263.6428,-270.9743 263.2862,-262.4166"/>
<polygon fill="#000000" stroke="#000000" points="266.7828,-262.2589 262.8694,-252.4133 259.7889,-262.5503 266.7828,-262.2589"/>
</g>
<!-- nmap&#45;&gt;nmap -->
<g id="edge19" class="edge">
<title>nmap&#45;&gt;nmap</title>
<path fill="none" stroke="#000000" d="M284.9972,-318.4321C297.7902,-321.6753 310.1022,-317.5313 310.1022,-306 310.1022,-297.6218 303.6028,-293.1433 295.1417,-292.5644"/>
<polygon fill="#000000" stroke="#000000" points="294.6041,-289.1004 284.9972,-293.5679 295.2932,-296.0665 294.6041,-289.1004"/>
</g>
<!-- block&#45;&gt;display_block -->
<g id="edge23" class="edge">
<title>block&#45;&gt;display_block</title>
<path fill="none" stroke="#000000" d="M119.1022,-215.8314C119.1022,-208.131 119.1022,-198.9743 119.1022,-190.4166"/>
<polygon fill="#000000" stroke="#000000" points="122.6023,-190.4132 119.1022,-180.4133 115.6023,-190.4133 122.6023,-190.4132"/>
</g>
</g>
</svg>
